<svg width="51" height="51" viewBox="0 0 51 51" fill="none" xmlns="http://www.w3.org/2000/svg">
<g clip-path="url(#clip0_3_25)">
<path d="M12.64 36.576C10.24 36.576 8.128 36.032 6.304 34.944C4.512 33.856 3.12 32.304 2.128 30.288C1.136 28.272 0.64 25.904 0.64 23.184C0.64 20.496 1.136 18.16 2.128 16.176C3.12 14.16 4.496 12.592 6.256 11.472C8.048 10.352 10.144 9.792 12.544 9.792C14.848 9.792 16.88 10.336 18.64 11.424C20.432 12.512 21.824 14.064 22.816 16.08C23.84 18.096 24.352 20.496 24.352 23.28V24.768H6.496C6.656 26.944 7.28 28.608 8.368 29.76C9.488 30.912 10.944 31.488 12.736 31.488C14.112 31.488 15.248 31.168 16.144 30.528C17.072 29.856 17.712 28.992 18.064 27.936L23.872 28.368C23.072 30.928 21.712 32.944 19.792 34.416C17.872 35.856 15.488 36.576 12.64 36.576ZM6.544 20.64H18.208C18.048 18.688 17.456 17.248 16.432 16.32C15.408 15.36 14.096 14.88 12.496 14.88C10.896 14.88 9.568 15.376 8.512 16.368C7.488 17.328 6.832 18.752 6.544 20.64ZM28.3173 41.136V36H50.2052V41.136H28.3173Z" fill="white"/>
</g>
<defs>
<clipPath id="clip0_3_25">
<rect width="51" height="51" fill="white"/>
</clipPath>
</defs>
</svg>
